<mxfile host="app.diagrams.net" agent="Mozilla/5.0 (Windows NT 10.0; Win64; x64) AppleWebKit/537.36 (KHTML, like Gecko) Chrome/135.0.0.0 Safari/537.36" version="26.2.6">
  <diagram name="Sayfa -1" id="XzjCIxP6p7gIzHxvD16-">
    <mxGraphModel dx="1880" dy="1100" grid="1" gridSize="10" guides="1" tooltips="1" connect="1" arrows="1" fold="1" page="1" pageScale="1" pageWidth="1169" pageHeight="827" math="0" shadow="0">
      <root>
        <mxCell id="0" />
        <mxCell id="1" parent="0" />
        <mxCell id="WewAdVMwFnLea7ilDSZz-17" value="" style="group;fontSize=16;spacingLeft=4;spacingRight=4;" vertex="1" connectable="0" parent="1">
          <mxGeometry x="9" y="90" width="1151.11" height="420" as="geometry" />
        </mxCell>
        <mxCell id="WewAdVMwFnLea7ilDSZz-16" value="" style="rounded=0;whiteSpace=wrap;html=1;fontSize=16;spacingLeft=4;spacingRight=4;" vertex="1" parent="WewAdVMwFnLea7ilDSZz-17">
          <mxGeometry width="1151.11" height="420" as="geometry" />
        </mxCell>
        <mxCell id="WewAdVMwFnLea7ilDSZz-12" style="edgeStyle=orthogonalEdgeStyle;rounded=0;orthogonalLoop=1;jettySize=auto;html=1;exitX=1;exitY=0.25;exitDx=0;exitDy=0;fontSize=16;spacingLeft=4;spacingRight=4;" edge="1" parent="WewAdVMwFnLea7ilDSZz-17" source="WewAdVMwFnLea7ilDSZz-2">
          <mxGeometry relative="1" as="geometry">
            <mxPoint x="715.5548648648648" y="113.55555555555556" as="targetPoint" />
          </mxGeometry>
        </mxCell>
        <mxCell id="WewAdVMwFnLea7ilDSZz-2" value="SETUAV TOOLKIT" style="rounded=0;whiteSpace=wrap;html=1;fontSize=16;fontStyle=1;fillColor=#fff2cc;strokeColor=#d6b656;spacingLeft=4;spacingRight=4;" vertex="1" parent="WewAdVMwFnLea7ilDSZz-17">
          <mxGeometry x="482.22175675675675" y="15.555555555555555" width="186.6664864864865" height="388.8888888888889" as="geometry" />
        </mxCell>
        <mxCell id="WewAdVMwFnLea7ilDSZz-6" style="edgeStyle=orthogonalEdgeStyle;rounded=0;orthogonalLoop=1;jettySize=auto;html=1;exitX=1;exitY=0.5;exitDx=0;exitDy=0;entryX=0;entryY=0.5;entryDx=0;entryDy=0;fontSize=16;spacingLeft=4;spacingRight=4;" edge="1" parent="WewAdVMwFnLea7ilDSZz-17" source="WewAdVMwFnLea7ilDSZz-3" target="WewAdVMwFnLea7ilDSZz-5">
          <mxGeometry relative="1" as="geometry" />
        </mxCell>
        <mxCell id="WewAdVMwFnLea7ilDSZz-3" value="PERFORMANCE DATA OF COMPONENTS" style="rounded=0;whiteSpace=wrap;html=1;spacingTop=0;spacingLeft=4;spacingRight=4;fontSize=16;fillColor=#dae8fc;strokeColor=#6c8ebf;" vertex="1" parent="WewAdVMwFnLea7ilDSZz-17">
          <mxGeometry x="15.555540540540541" y="217.77777777777777" width="186.6664864864865" height="186.66666666666666" as="geometry" />
        </mxCell>
        <mxCell id="WewAdVMwFnLea7ilDSZz-4" value="ENVIRONMENTAL CONDITIONS" style="rounded=0;whiteSpace=wrap;html=1;spacingTop=0;spacingLeft=4;spacingRight=4;fontSize=16;fillColor=#dae8fc;strokeColor=#6c8ebf;" vertex="1" parent="WewAdVMwFnLea7ilDSZz-17">
          <mxGeometry x="248.88864864864865" y="15.555555555555555" width="186.6664864864865" height="186.66666666666666" as="geometry" />
        </mxCell>
        <mxCell id="WewAdVMwFnLea7ilDSZz-8" style="edgeStyle=orthogonalEdgeStyle;rounded=0;orthogonalLoop=1;jettySize=auto;html=1;exitX=1;exitY=0.5;exitDx=0;exitDy=0;entryX=0;entryY=0.76;entryDx=0;entryDy=0;entryPerimeter=0;fontSize=16;spacingLeft=4;spacingRight=4;" edge="1" parent="WewAdVMwFnLea7ilDSZz-17" source="WewAdVMwFnLea7ilDSZz-5" target="WewAdVMwFnLea7ilDSZz-2">
          <mxGeometry relative="1" as="geometry">
            <mxPoint x="466.6662162162162" y="311.3703703703705" as="targetPoint" />
          </mxGeometry>
        </mxCell>
        <mxCell id="WewAdVMwFnLea7ilDSZz-5" value="CONFIGURATION OF UAV" style="rounded=0;whiteSpace=wrap;html=1;spacingTop=0;spacingLeft=4;spacingRight=4;fontSize=16;fillColor=#dae8fc;strokeColor=#6c8ebf;" vertex="1" parent="WewAdVMwFnLea7ilDSZz-17">
          <mxGeometry x="248.88864864864865" y="217.77777777777777" width="186.6664864864865" height="186.66666666666666" as="geometry" />
        </mxCell>
        <mxCell id="WewAdVMwFnLea7ilDSZz-9" style="edgeStyle=orthogonalEdgeStyle;rounded=0;orthogonalLoop=1;jettySize=auto;html=1;entryX=0;entryY=0.24;entryDx=0;entryDy=0;entryPerimeter=0;fontSize=16;spacingLeft=4;spacingRight=4;" edge="1" parent="WewAdVMwFnLea7ilDSZz-17" source="WewAdVMwFnLea7ilDSZz-4" target="WewAdVMwFnLea7ilDSZz-2">
          <mxGeometry relative="1" as="geometry" />
        </mxCell>
        <mxCell id="WewAdVMwFnLea7ilDSZz-10" value="VISUAL PRESENTATION OF PERFORMANCE ANALYSIS RESULTS" style="rounded=0;whiteSpace=wrap;html=1;spacingLeft=4;spacingBottom=1;spacingRight=4;spacingTop=0;fontSize=16;fillColor=#d5e8d4;strokeColor=#82b366;" vertex="1" parent="WewAdVMwFnLea7ilDSZz-17">
          <mxGeometry x="715.5548648648648" y="15.555555555555555" width="186.6664864864865" height="186.66666666666666" as="geometry" />
        </mxCell>
        <mxCell id="WewAdVMwFnLea7ilDSZz-15" style="edgeStyle=orthogonalEdgeStyle;rounded=0;orthogonalLoop=1;jettySize=auto;html=1;exitX=1;exitY=0.5;exitDx=0;exitDy=0;entryX=0;entryY=0.5;entryDx=0;entryDy=0;fontSize=16;spacingLeft=4;spacingRight=4;" edge="1" parent="WewAdVMwFnLea7ilDSZz-17" source="WewAdVMwFnLea7ilDSZz-11" target="WewAdVMwFnLea7ilDSZz-14">
          <mxGeometry relative="1" as="geometry" />
        </mxCell>
        <mxCell id="WewAdVMwFnLea7ilDSZz-11" value="SIMULATION SPECIFIC PERFORMANCE DATA EXPORT" style="rounded=0;whiteSpace=wrap;html=1;spacingTop=0;spacingLeft=4;spacingRight=4;fontSize=16;fillColor=#d5e8d4;strokeColor=#82b366;" vertex="1" parent="WewAdVMwFnLea7ilDSZz-17">
          <mxGeometry x="715.5548648648648" y="217.77777777777777" width="186.6664864864865" height="186.66666666666666" as="geometry" />
        </mxCell>
        <mxCell id="WewAdVMwFnLea7ilDSZz-13" style="edgeStyle=orthogonalEdgeStyle;rounded=0;orthogonalLoop=1;jettySize=auto;html=1;exitX=1;exitY=0.75;exitDx=0;exitDy=0;entryX=0;entryY=0.48;entryDx=0;entryDy=0;entryPerimeter=0;fontSize=16;spacingLeft=4;spacingRight=4;" edge="1" parent="WewAdVMwFnLea7ilDSZz-17" source="WewAdVMwFnLea7ilDSZz-2" target="WewAdVMwFnLea7ilDSZz-11">
          <mxGeometry relative="1" as="geometry" />
        </mxCell>
        <mxCell id="WewAdVMwFnLea7ilDSZz-14" value="SIMULATION HELPER MODULES FOR APPLICATION PERFORMANCE DATA&amp;nbsp;" style="rounded=0;whiteSpace=wrap;html=1;spacingTop=0;spacingLeft=4;spacingRight=4;fontSize=16;fillColor=#d5e8d4;strokeColor=#82b366;" vertex="1" parent="WewAdVMwFnLea7ilDSZz-17">
          <mxGeometry x="948.887972972973" y="217.77777777777777" width="186.6664864864865" height="186.66666666666666" as="geometry" />
        </mxCell>
        <mxCell id="WewAdVMwFnLea7ilDSZz-18" value="&lt;span style=&quot;font-family: -apple-system, BlinkMacSystemFont, &amp;quot;Segoe WPC&amp;quot;, &amp;quot;Segoe UI&amp;quot;, system-ui, Ubuntu, &amp;quot;Droid Sans&amp;quot;, sans-serif; font-size: 14px; font-style: normal; font-variant-ligatures: normal; font-variant-caps: normal; font-weight: 400; letter-spacing: normal; orphans: 2; text-align: start; text-indent: 0px; text-transform: none; widows: 2; word-spacing: 0px; -webkit-text-stroke-width: 0px; white-space: normal; text-decoration-thickness: initial; text-decoration-style: initial; text-decoration-color: initial; float: none; display: inline !important;&quot;&gt;FIGURE 1: System Context Diagram&lt;/span&gt;" style="text;whiteSpace=wrap;html=1;fontColor=#000000;" vertex="1" parent="1">
          <mxGeometry x="9" y="50" width="250" height="40" as="geometry" />
        </mxCell>
      </root>
    </mxGraphModel>
  </diagram>
</mxfile>
